<svg width="20" height="20" viewBox="0 0 35 35" fill="none" xmlns="http://www.w3.org/2000/svg"><g clip-path="url('#clip0_101_108')" fill="#FF6B09"><path d="M17.5 5.581c.566 0 1.025-.459 1.025-1.025v-3.53a1.025 1.025 0 1 0-2.05 0v3.53c0 .566.459 1.025 1.025 1.025ZM33.975 16.475h-3.53a1.025 1.025 0 0 0 0 2.05h3.53a1.025 1.025 0 0 0 0-2.05ZM5.581 17.5c0-.566-.459-1.025-1.025-1.025h-3.53a1.025 1.025 0 0 0 0 2.05h3.53c.566 0 1.025-.459 1.025-1.025ZM26.653 9.372c.263 0 .525-.1.725-.3l2.496-2.497a1.025 1.025 0 1 0-1.45-1.45l-2.496 2.497a1.025 1.025 0 0 0 .725 1.75ZM27.378 25.928a1.026 1.026 0 0 0-1.45 1.45l2.496 2.496a1.022 1.022 0 0 0 1.45 0c.4-.4.4-1.05 0-1.45l-2.496-2.496ZM7.622 25.928l-2.496 2.496a1.025 1.025 0 1 0 1.45 1.45l2.496-2.496a1.025 1.025 0 0 0-1.45-1.45ZM7.622 9.072a1.022 1.022 0 0 0 1.45 0c.4-.4.4-1.05 0-1.45L6.576 5.125a1.025 1.025 0 0 0-1.45 1.45l2.496 2.497ZM22.074 6.494a1.022 1.022 0 0 0 1.34-.554l1.355-3.26a1.025 1.025 0 1 0-1.893-.786l-1.355 3.26c-.217.522.03 1.122.553 1.34ZM33.107 22.875l-3.26-1.354a1.025 1.025 0 1 0-.787 1.893l3.26 1.355a1.024 1.024 0 1 0 .787-1.893ZM12.926 28.506a1.026 1.026 0 0 0-1.34.554l-1.355 3.26a1.025 1.025 0 1 0 1.893.787l1.355-3.26a1.025 1.025 0 0 0-.553-1.34ZM1.893 12.124l3.26 1.355a1.023 1.023 0 0 0 1.34-.553 1.025 1.025 0 0 0-.553-1.34L2.68 10.23a1.026 1.026 0 0 0-.787 1.894ZM28.517 12.951a1.026 1.026 0 0 0 1.34.557l3.262-1.347a1.025 1.025 0 0 0-.782-1.896l-3.263 1.347a1.025 1.025 0 0 0-.557 1.34ZM23.387 29.074a1.025 1.025 0 0 0-1.895.782l1.347 3.263a1.026 1.026 0 1 0 1.896-.782l-1.348-3.263ZM6.483 22.049a1.026 1.026 0 0 0-1.34-.557l-3.262 1.347a1.025 1.025 0 0 0 .782 1.896l3.263-1.348c.524-.215.773-.815.557-1.338ZM11.613 5.927a1.026 1.026 0 1 0 1.895-.783l-1.347-3.263a1.025 1.025 0 0 0-1.896.782l1.348 3.264Z"/><path d="M18.525 26.946c4.76-.513 8.477-4.553 8.477-9.446 0-5.24-4.262-9.502-9.502-9.502-5.24 0-9.502 4.263-9.502 9.502 0 4.893 3.718 8.933 8.477 9.446v7.029a1.025 1.025 0 0 0 2.05 0v-7.029ZM10.05 17.5c0-4.109 3.342-7.451 7.451-7.451s7.451 3.342 7.451 7.451c0 3.76-2.8 6.88-6.426 7.38v-3.913l.232.232a1.026 1.026 0 0 0 1.45-1.45l-1.987-1.988a1.025 1.025 0 0 0-1.44-.01l-2.05 1.992a1.025 1.025 0 0 0 1.428 1.471l.317-.307v3.973c-3.626-.5-6.426-3.62-6.426-7.38Z"/></g><defs><clipPath id="clip0_101_108"><path fill="#fff" d="M0 0h35v35H0z"/></clipPath></defs></svg>