<!-- Generated by IcoMoon.io -->
<svg version="1.1" xmlns="http://www.w3.org/2000/svg" width="1024" height="1024" viewBox="0 0 1024 1024">
<g id="icomoon-ignore">
</g>
<path d="M591.642 131.856c6.6-12.512 10.358-26.75 10.358-41.856 0-49.626-40.371-90-89.999-90-49.625 0-89.999 40.374-89.999 90 0 15.106 3.758 29.344 10.362 41.856-210.060 37.7-369.966 221.798-369.966 442.542 0 247.91 201.692 449.603 449.603 449.603s449.603-201.692 449.603-449.603c0-220.744-159.903-404.839-369.961-442.542zM512 60c16.543 0 30.003 13.458 30.003 30s-13.46 30-30.003 30c-16.541 0-29.999-13.458-29.999-30s13.458-30 29.999-30zM512 963.999c-214.827 0-389.603-174.776-389.603-389.601 0-214.83 174.776-389.605 389.603-389.605 214.83 0 389.606 174.776 389.606 389.605 0 214.825-174.776 389.601-389.606 389.601z"></path>
<path d="M746.629 342.074c-0.42-0.476-0.829-0.962-1.285-1.418-0.481-0.482-0.988-0.912-1.495-1.354-59.704-58.886-141.624-95.302-231.849-95.302-90.608 0-172.806 36.673-232.556 95.944-0.26 0.242-0.534 0.458-0.786 0.712-0.212 0.212-0.39 0.442-0.594 0.656-59.576 59.792-96.458 142.21-96.458 233.085 0 16.568 13.432 29.998 30 29.998h34c16.568 0 30-13.43 30-29.998s-13.432-30.003-30-30.003h-2.326c5.79-52.204 26.498-99.97 57.76-138.93l1.66 1.66c5.858 5.858 13.536 8.788 21.212 8.788s15.356-2.928 21.212-8.788c11.716-11.716 11.716-30.71 0-42.426l-1.616-1.616c38.882-31.066 86.484-51.638 138.494-57.406v2.324c0 16.568 13.432 30 29.998 30 16.568 0 30.003-13.432 30.003-30v-2.324c51.988 5.772 99.589 26.354 138.47 57.426l-1.592 1.594c-11.715 11.716-11.715 30.71 0 42.426 5.857 5.858 13.537 8.788 21.212 8.788s15.355-2.928 21.212-8.788l1.638-1.638c31.186 38.862 51.876 86.48 57.733 138.516h-2.673c-16.568 0-30.003 13.43-30.003 29.998s13.435 30.003 30.003 30.003c0 0 34.422-0.005 34.432-0.005 16.568-0.020 29.983-13.471 29.962-30.039-0.123-90.307-36.71-172.243-95.77-231.883z"></path>
<path d="M648.044 438.349c-11.715-11.716-30.71-11.716-42.424 0l-125.279 125.281c-13.87-6.63-29.352-9.687-45.034-8.586-16.528 1.152-28.992 15.488-27.838 32.015s15.474 29 32.016 27.837c8.666-0.609 17.158 2.57 23.3 8.714 6.048 6.047 9.232 14.413 8.736 22.953-0.96 16.538 11.67 30.725 28.21 31.688 0.592 0.036 1.18 0.051 1.766 0.051 15.773-0.005 28.998-12.314 29.924-28.262 0.886-15.304-2.196-30.413-8.663-43.971l125.286-125.292c11.715-11.718 11.715-30.712 0-42.428z"></path>
<path d="M684.001 790.001h-344.002c-16.568 0-30 13.43-30 29.998s13.432 30.003 30 30.003h344.002c16.568 0 29.998-13.435 29.998-30.003s-13.43-29.998-29.998-29.998z"></path>
</svg>
