<?xml version="1.0" encoding="UTF-8"?>
<svg version="1.1" viewBox="0 0 1024 1024"  xmlns="http://www.w3.org/2000/svg">
<path transform="translate(343,376)" d="m0 0 2 1-3 12-16 58-9 33-7 24-1 1h-29l-7-28-10-44-2-7-3 13-11 43-5 20-2 3h-29l-5-21-5-19-13-49-6-24-4-12v-3h28l11 44 9 42v5h2l1-9 5-22 6-23 9-36 7-1h16l3 8 11 47 7 27 1 10h2v-9l18-72 3-10 1-1z" fill="rgba(255,187,0,0.733)"/>
<path transform="translate(572,543)" d="m0 0 24 1 1 5v9l10-10 9-4 4-1h14l11 4 10 7 7 7 7 14 2 7 1 14-2 14-5 13-10 13-7 7-12 6-3 1h-13l-12-5-7-6-3-4v-2h-2l1 5 1 14v26l-17 1h-11l1-135zm42 24-8 4-6 8-3 8-1 4v9l3 9 7 9 9 5h10l8-4 7-8 4-10 1-9-3-10-5-8-6-5-5-2z" fill="rgba(255,255,255,0.733)"/>
<path transform="translate(466,543)" d="m0 0 25 1 1 14 9-10 8-4 4-1h16l11 4 11 8 7 9 4 8 3 13v20l-4 14-6 10-9 10-9 6-7 3-5 1h-11l-11-4-9-8-2-3v43l-1 1h-26v-134zm42 24-8 4-6 7-3 10v16l5 10 9 8 3 1h11l7-4 7-8 4-9v-16l-6-12-9-6-3-1z" fill="rgba(255,255,255,0.733)"/>
<path transform="translate(387,526)" d="m0 0h28l12 29 22 55 13 36v4h-27l-7-20v-2h-53l-3 12-4 9-3 1h-25l-1-2 11-27 6-15 14-37 7-19 8-21zm14 31-3 9-13 38 4 2h30l-1-7-6-14-10-28z" fill="rgba(255,255,255,0.733)"/>
<path transform="translate(612,375)" d="m0 0h1l1 16v29l4-5 12-6 3-1h16l11 4 8 6 5 8 3 13 1 66-1 1-26-1-1-3v-58l-3-8-5-4-3-1h-8l-8 3-5 5-3 7-1 60-26-1v-128l1-1z" fill="rgba(255,187,0,0.733)"/>
<path transform="translate(723,408)" d="m0 0h12l12 3 10 5 10 10 6 10 4 11 1 8v11l-1 1h-61l-7-1 4 10 5 5 7 4 10 1 9-3 4-4 1-2 26 1-2 5-7 11-10 8-13 5-7 1h-8l-14-3-11-6-11-10-6-10-3-10-1-8v-10l3-13 6-11 6-7 10-7 10-4zm1 22-8 4-5 7-2 7 1 1 41 1-1-7-4-7-5-4-4-2z" fill="rgba(255,187,0,0.733)"/>
<path transform="translate(371,408)" d="m0 0h17l10 3 10 6 7 6 6 10 4 9 1 5v20h-61l-6-1 3 9 7 8 10 3 9-1 8-4 3-5 5 1 20 1-1 5-6 10-8 7-8 4-9 3-7 1h-8l-13-3-11-6-10-9-6-9-3-8-1-6v-19l3-12 5-8 9-10 11-7zm9 21-9 2-6 4-5 7-1 7 41 1-1-9-7-8-9-4z" fill="rgba(255,187,0,0.733)"/>
<path transform="translate(467,408)" d="m0 0h15l12 3 8 4 7 6 6 11 2 9 1 36v29h-26l-1-1v-7l1-5-9 9-6 4-7 2h-13l-13-4-9-8-4-10v-14l3-6 7-7 12-6 12-3 8-1h19l-2-11-5-5-6-2h-10l-8 3-7 7-6-1-10-2-3-15 3-3 17-9zm9 58-13 3-5 5-1 7 3 6 5 3h7l10-3 6-5 3-7v-9z" fill="rgba(255,187,0,0.733)"/>
<path transform="translate(532,386)" d="m0 0h26l1 9v15h15l6 2v19h-21v46l2 5 3 2h9l5-1 3 21-6 2-6 1h-15l-10-4-8-7-3-7-1-5v-27l1-27-4 1h-8l-1-1v-19h13z" fill="rgba(255,187,0,0.733)"/>
<path transform="translate(774,305)" d="m0 0h9l9 3 5 4 3 7 1 9h13l5 3 4 5 2 5v8l-4 6-4 4-4 1h-70l-8-8-2-8 2-7 7-5 3-1h15l-2-6-1-6 4-7 8-6z" fill="#494848"/>
<path transform="translate(839,408)" d="m0 0h6l-1 27h-13l-9 4-5 4-4 10-1 11-1 42h-14l-12-1-1-6v-89l1-1 24 1v17h2l2-6 4-6 6-4 6-2z" fill="rgba(255,187,0,0.733)"/>
<path transform="translate(699,592)" d="m0 0h122l5 3 1 7-4 5-12 1h-89l-24-1-5-4v-6l4-4z" fill="rgba(166,162,162,0.54)"/>
<path transform="translate(204,592)" d="m0 0h120l6 4 1 1v5l-5 5-18 1h-77l-27-1-5-4-1-6z" fill="rgba(166,162,162,0.54)"/>
<path transform="translate(698,561)" d="m0 0h124l4 4 1 5-4 6-124 1-6-5v-6z" fill="rgba(166,162,162,0.54)"/>
<path transform="translate(697,529)" d="m0 0h125l5 4 1 5-4 5-2 1-121 1-5-2-4-5 1-5z" fill="rgba(166,162,162,0.54)"/>
<path transform="translate(203,529)" d="m0 0h123l5 5 1 3-4 6-2 1-25 1h-96l-5-3-2-2v-7z" fill="rgba(166,162,162,0.54)"/>
<path transform="translate(204,561)" d="m0 0h109l14 1 4 5-1 5-5 5h-120l-5-3-2-3 1-7z" fill="rgba(166,162,162,0.54)"/>
<path transform="translate(727,313)" d="m0 0 9 2 6 3v2l-10 3-7 6-4 10v16l-6-3-7-8-2-6v-8l4-9 6-5 5-2z" fill="#f8d219"/>
<path transform="translate(782,372)" d="m0 0h6l3 3-4 8-7 10-1 1-7-1 1-6 8-13z" fill="#4737f8"/>
<path transform="translate(759,372)" d="m0 0 7 1 1 4-9 16-1 1-7-1 1-6z" fill="#4737f8"/>
<path transform="translate(717,366)" d="m0 0 7 1 1 4-7 11-5 4h-6l1-6 7-12z" fill="#f8d219"/>
<path transform="translate(736,372)" d="m0 0 9 1-2 7-6 10-3 3h-5l-1-1v-5l4-6z" fill="#4737f8"/>
<path transform="translate(806,372)" d="m0 0 6 1 1 1-1 7-8 10-4 1-2-2 1-6 6-11z" fill="#4737f8"/>
<path transform="translate(681,329)" d="m0 0h9l4 1 1 2v7l-1 1h-12l-2-2v-8z" fill="#f8d219"/>
<path transform="translate(718,287)" d="m0 0h9v13l-1 3h-7l-2-9v-6z" fill="#f8d219"/>
<path transform="translate(698,355)" d="m0 0 4 1 1 2v6l-7 6-5-1-2-1 1-5z" fill="#f8d219"/>
<path transform="translate(694,299)" d="m0 0 6 1 5 5-1 5-4 3-5-2-4-5 1-5z" fill="#f8d219"/>
<path transform="translate(746,292)" d="m0 0 5 1 3 3-2 5-4 5-7-1-1-3 5-9z" fill="#f8d219"/>
</svg>
